# xmcd
#
# Track frame offsets: 
#        150
#        21305
#        39348
#        60787
#        80555
#        98402
#        121113
#        146489
#        167477
#        191994
#        204153
#        228891
#        249754
#        268225
#        290047
#        315333
#
# Disc length: 4452 seconds
#
# Revision: 0
# Processed by: cddbd v1.4PL0 Copyright (c) Steve Scherf et al.
# Submitted via: ExactAudioCopy v0.90b4
#
DISCID=ca116210
DTITLE=Willy DeVille - Live Berlin
DYEAR=2002
DGENRE=Blues
TTITLE0=Betty And Dupree
TTITLE1=It´s Too Late She´s Gone
TTITLE2=Spanish Harlem
TTITLE3=Trouble In Mind
TTITLE4=Storybook Love
TTITLE5=Big Blue Diamond
TTITLE6=Shake Sugaree
TTITLE7=Let It Be Me
TTITLE8=Broken Heart
TTITLE9=Hound Dog
TTITLE10=Junkers Blues
TTITLE11=Since I Met You Baby
TTITLE12=Blue So Blue
TTITLE13=Keep A Knockin´/Sea Cruise
TTITLE14=Shake Rattle And Roll
TTITLE15=Heaven Stood Still
EXTD=
EXTT0=
EXTT1=
EXTT2=
EXTT3=
EXTT4=
EXTT5=
EXTT6=
EXTT7=
EXTT8=
EXTT9=
EXTT10=
EXTT11=
EXTT12=
EXTT13=
EXTT14=
EXTT15=
PLAYORDER=
